NotoSansKayahLi-Regular.ufo
<glyph name="uni25CC" format="2">
  <advance width="594"/>
  <unicode hex="25CC"/>
  <anchor x="297" y="0" name="bottom"/>
  <anchor x="87" y="0" name="bottom_alt"/>
  <anchor x="297" y="605" name="top"/>
  <outline>
    <contour>
      <point x="213" y="522" type="curve" smooth="yes"/>
      <point x="199" y="522"/>
      <point x="187" y="510"/>
      <point x="187" y="496" type="curve" smooth="yes"/>
      <point x="187" y="482"/>
      <point x="199" y="470"/>
      <point x="213" y="470" type="curve" smooth="yes"/>
      <point x="227" y="470"/>
      <point x="239" y="482"/>
      <point x="239" y="496" type="curve" smooth="yes"/>
      <point x="239" y="510"/>
      <point x="227" y="522"/>
    </contour>
    <contour>
      <point x="381" y="522" type="curve" smooth="yes"/>
      <point x="367" y="522"/>
      <point x="355" y="510"/>
      <point x="355" y="496" type="curve" smooth="yes"/>
      <point x="355" y="482"/>
      <point x="367" y="470"/>
      <point x="381" y="470" type="curve" smooth="yes"/>
      <point x="395" y="470"/>
      <point x="407" y="482"/>
      <point x="407" y="496" type="curve" smooth="yes"/>
      <point x="407" y="510"/>
      <point x="395" y="522"/>
    </contour>
    <contour>
      <point x="213" y="112" type="curve" smooth="yes"/>
      <point x="199" y="112"/>
      <point x="187" y="100"/>
      <point x="187" y="86" type="curve" smooth="yes"/>
      <point x="187" y="72"/>
      <point x="199" y="60"/>
      <point x="213" y="60" type="curve" smooth="yes"/>
      <point x="227" y="60"/>
      <point x="239" y="72"/>
      <point x="239" y="86" type="curve" smooth="yes"/>
      <point x="239" y="100"/>
      <point x="227" y="112"/>
    </contour>
    <contour>
      <point x="381" y="112" type="curve" smooth="yes"/>
      <point x="367" y="112"/>
      <point x="355" y="100"/>
      <point x="355" y="86" type="curve" smooth="yes"/>
      <point x="355" y="72"/>
      <point x="367" y="60"/>
      <point x="381" y="60" type="curve" smooth="yes"/>
      <point x="395" y="60"/>
      <point x="407" y="72"/>
      <point x="407" y="86" type="curve" smooth="yes"/>
      <point x="407" y="100"/>
      <point x="395" y="112"/>
    </contour>
    <contour>
      <point x="297" y="540" type="curve" smooth="yes"/>
      <point x="283" y="540"/>
      <point x="271" y="528"/>
      <point x="271" y="514" type="curve" smooth="yes"/>
      <point x="271" y="500"/>
      <point x="283" y="488"/>
      <point x="297" y="488" type="curve" smooth="yes"/>
      <point x="311" y="488"/>
      <point x="323" y="500"/>
      <point x="323" y="514" type="curve" smooth="yes"/>
      <point x="323" y="528"/>
      <point x="311" y="540"/>
    </contour>
    <contour>
      <point x="297" y="94" type="curve" smooth="yes"/>
      <point x="283" y="94"/>
      <point x="271" y="82"/>
      <point x="271" y="68" type="curve" smooth="yes"/>
      <point x="271" y="54"/>
      <point x="283" y="42"/>
      <point x="297" y="42" type="curve" smooth="yes"/>
      <point x="311" y="42"/>
      <point x="323" y="54"/>
      <point x="323" y="68" type="curve" smooth="yes"/>
      <point x="323" y="82"/>
      <point x="311" y="94"/>
    </contour>
    <contour>
      <point x="48" y="291" type="curve" smooth="yes"/>
      <point x="48" y="277"/>
      <point x="60" y="265"/>
      <point x="74" y="265" type="curve" smooth="yes"/>
      <point x="88" y="265"/>
      <point x="100" y="277"/>
      <point x="100" y="291" type="curve" smooth="yes"/>
      <point x="100" y="305"/>
      <point x="88" y="317"/>
      <point x="74" y="317" type="curve" smooth="yes"/>
      <point x="60" y="317"/>
      <point x="48" y="305"/>
    </contour>
    <contour>
      <point x="494" y="291" type="curve" smooth="yes"/>
      <point x="494" y="277"/>
      <point x="506" y="265"/>
      <point x="520" y="265" type="curve" smooth="yes"/>
      <point x="534" y="265"/>
      <point x="546" y="277"/>
      <point x="546" y="291" type="curve" smooth="yes"/>
      <point x="546" y="305"/>
      <point x="534" y="317"/>
      <point x="520" y="317" type="curve" smooth="yes"/>
      <point x="506" y="317"/>
      <point x="494" y="305"/>
    </contour>
    <contour>
      <point x="113" y="133" type="curve" smooth="yes"/>
      <point x="113" y="119"/>
      <point x="125" y="107"/>
      <point x="139" y="107" type="curve" smooth="yes"/>
      <point x="153" y="107"/>
      <point x="165" y="119"/>
      <point x="165" y="133" type="curve" smooth="yes"/>
      <point x="165" y="147"/>
      <point x="153" y="159"/>
      <point x="139" y="159" type="curve" smooth="yes"/>
      <point x="125" y="159"/>
      <point x="113" y="147"/>
    </contour>
    <contour>
      <point x="113" y="449" type="curve" smooth="yes"/>
      <point x="113" y="435"/>
      <point x="125" y="423"/>
      <point x="139" y="423" type="curve" smooth="yes"/>
      <point x="153" y="423"/>
      <point x="165" y="435"/>
      <point x="165" y="449" type="curve" smooth="yes"/>
      <point x="165" y="463"/>
      <point x="153" y="475"/>
      <point x="139" y="475" type="curve" smooth="yes"/>
      <point x="125" y="475"/>
      <point x="113" y="463"/>
    </contour>
    <contour>
      <point x="429" y="133" type="curve" smooth="yes"/>
      <point x="429" y="119"/>
      <point x="441" y="107"/>
      <point x="455" y="107" type="curve" smooth="yes"/>
      <point x="469" y="107"/>
      <point x="481" y="119"/>
      <point x="481" y="133" type="curve" smooth="yes"/>
      <point x="481" y="147"/>
      <point x="469" y="159"/>
      <point x="455" y="159" type="curve" smooth="yes"/>
      <point x="441" y="159"/>
      <point x="429" y="147"/>
    </contour>
    <contour>
      <point x="429" y="449" type="curve" smooth="yes"/>
      <point x="429" y="435"/>
      <point x="441" y="423"/>
      <point x="455" y="423" type="curve" smooth="yes"/>
      <point x="469" y="423"/>
      <point x="481" y="435"/>
      <point x="481" y="449" type="curve" smooth="yes"/>
      <point x="481" y="463"/>
      <point x="469" y="475"/>
      <point x="455" y="475" type="curve" smooth="yes"/>
      <point x="441" y="475"/>
      <point x="429" y="463"/>
    </contour>
    <contour>
      <point x="66" y="207" type="curve" smooth="yes"/>
      <point x="66" y="193"/>
      <point x="78" y="181"/>
      <point x="92" y="181" type="curve" smooth="yes"/>
      <point x="106" y="181"/>
      <point x="118" y="193"/>
      <point x="118" y="207" type="curve" smooth="yes"/>
      <point x="118" y="221"/>
      <point x="106" y="233"/>
      <point x="92" y="233" type="curve" smooth="yes"/>
      <point x="78" y="233"/>
      <point x="66" y="221"/>
    </contour>
    <contour>
      <point x="66" y="375" type="curve" smooth="yes"/>
      <point x="66" y="361"/>
      <point x="78" y="349"/>
      <point x="92" y="349" type="curve" smooth="yes"/>
      <point x="106" y="349"/>
      <point x="118" y="361"/>
      <point x="118" y="375" type="curve" smooth="yes"/>
      <point x="118" y="389"/>
      <point x="106" y="401"/>
      <point x="92" y="401" type="curve" smooth="yes"/>
      <point x="78" y="401"/>
      <point x="66" y="389"/>
    </contour>
    <contour>
      <point x="476" y="207" type="curve" smooth="yes"/>
      <point x="476" y="193"/>
      <point x="488" y="181"/>
      <point x="502" y="181" type="curve" smooth="yes"/>
      <point x="516" y="181"/>
      <point x="528" y="193"/>
      <point x="528" y="207" type="curve" smooth="yes"/>
      <point x="528" y="221"/>
      <point x="516" y="233"/>
      <point x="502" y="233" type="curve" smooth="yes"/>
      <point x="488" y="233"/>
      <point x="476" y="221"/>
    </contour>
    <contour>
      <point x="476" y="375" type="curve" smooth="yes"/>
      <point x="476" y="361"/>
      <point x="488" y="349"/>
      <point x="502" y="349" type="curve" smooth="yes"/>
      <point x="516" y="349"/>
      <point x="528" y="361"/>
      <point x="528" y="375" type="curve" smooth="yes"/>
      <point x="528" y="389"/>
      <point x="516" y="401"/>
      <point x="502" y="401" type="curve" smooth="yes"/>
      <point x="488" y="401"/>
      <point x="476" y="389"/>
    </contour>
  </outline>
</glyph>
<glyph name="uniA900" format="2">
  <advance width="772"/>
  <unicode hex="A900"/>
  <outline>
    <contour>
      <point x="382" y="-10" type="curve" smooth="yes"/>
      <point x="628" y="-10"/>
      <point x="684" y="49"/>
      <point x="684" y="272" type="curve" smooth="yes"/>
      <point x="684" y="494"/>
      <point x="620" y="546"/>
      <point x="387" y="546" type="curve" smooth="yes"/>
      <point x="139" y="546"/>
      <point x="88" y="494"/>
      <point x="88" y="272" type="curve" smooth="yes"/>
      <point x="88" y="49"/>
      <point x="154" y="-10"/>
    </contour>
    <contour>
      <point x="385" y="60" type="curve" smooth="yes"/>
      <point x="210" y="60"/>
      <point x="177" y="113"/>
      <point x="177" y="272" type="curve" smooth="yes"/>
      <point x="177" y="436"/>
      <point x="203" y="476"/>
      <point x="384" y="476" type="curve" smooth="yes"/>
      <point x="559" y="476"/>
      <point x="595" y="431"/>
      <point x="595" y="272" type="curve" smooth="yes"/>
      <point x="595" y="107"/>
      <point x="563" y="60"/>
    </contour>
  </outline>
</glyph>
<glyph name="uniA901" format="2">
  <advance width="772"/>
  <unicode hex="A901"/>
  <outline>
    <contour>
      <point x="375" y="0" type="curve" smooth="yes"/>
      <point x="539" y="0" type="line" smooth="yes"/>
      <point x="629" y="0"/>
      <point x="684" y="24"/>
      <point x="684" y="131" type="curve" smooth="yes"/>
      <point x="684" y="205" type="line"/>
      <point x="630" y="205" type="line" smooth="yes"/>
      <point x="480" y="205"/>
      <point x="411" y="162"/>
      <point x="328" y="69" type="curve"/>
      <point x="189" y="69"/>
      <point x="177" y="92"/>
      <point x="177" y="189" type="curve" smooth="yes"/>
      <point x="177" y="270"/>
      <point x="198" y="293"/>
      <point x="374" y="293" type="curve" smooth="yes"/>
      <point x="555" y="293"/>
      <point x="585" y="280"/>
      <point x="600" y="241" type="curve"/>
      <point x="684" y="241" type="line"/>
      <point x="684" y="536" type="line"/>
      <point x="88" y="536" type="line"/>
      <point x="88" y="467" type="line"/>
      <point x="600" y="467" type="line"/>
      <point x="600" y="341" type="line"/>
      <point x="549" y="358"/>
      <point x="474" y="364"/>
      <point x="377" y="364" type="curve" smooth="yes"/>
      <point x="139" y="364"/>
      <point x="88" y="307"/>
      <point x="88" y="189" type="curve" smooth="yes"/>
      <point x="88" y="22"/>
      <point x="135" y="0"/>
    </contour>
    <contour>
      <point x="419" y="69" type="line"/>
      <point x="477" y="119"/>
      <point x="499" y="135"/>
      <point x="598" y="139" type="curve"/>
      <point x="598" y="124" type="line" smooth="yes"/>
      <point x="598" y="99"/>
      <point x="586" y="69"/>
      <point x="541" y="69" type="curve" smooth="yes"/>
    </contour>
  </outline>
</glyph>
<glyph name="uniA902" format="2">
  <advance width="772"/>
  <unicode hex="A902"/>
  <outline>
    <contour>
      <point x="378" y="0" type="line"/>
      <point x="393" y="0" type="line"/>
      <point x="684" y="536" type="line"/>
      <point x="591" y="536" type="line"/>
      <point x="389" y="144" type="line"/>
      <point x="187" y="536" type="line"/>
      <point x="88" y="536" type="line"/>
    </contour>
  </outline>
</glyph>
<glyph name="uniA903" format="2">
  <advance width="772"/>
  <unicode hex="A903"/>
  <outline>
    <contour>
      <point x="88" y="0" type="line"/>
      <point x="539" y="0" type="line" smooth="yes"/>
      <point x="629" y="0"/>
      <point x="684" y="24"/>
      <point x="684" y="131" type="curve" smooth="yes"/>
      <point x="684" y="259" type="line"/>
      <point x="633" y="259" type="line" smooth="yes"/>
      <point x="483" y="259"/>
      <point x="361" y="162"/>
      <point x="278" y="69" type="curve"/>
      <point x="187" y="69" type="line"/>
      <point x="654" y="523" type="line"/>
      <point x="654" y="536" type="line"/>
      <point x="290" y="536" type="line" smooth="yes"/>
      <point x="168" y="536"/>
      <point x="89" y="512"/>
      <point x="89" y="361" type="curve"/>
      <point x="171" y="361" type="line"/>
      <point x="171" y="445"/>
      <point x="225" y="467"/>
      <point x="290" y="467" type="curve" smooth="yes"/>
      <point x="488" y="467" type="line"/>
      <point x="88" y="76" type="line"/>
    </contour>
    <contour>
      <point x="374" y="69" type="line"/>
      <point x="432" y="119"/>
      <point x="500" y="180"/>
      <point x="599" y="184" type="curve"/>
      <point x="599" y="124" type="line" smooth="yes"/>
      <point x="599" y="99"/>
      <point x="586" y="69"/>
      <point x="541" y="69" type="curve" smooth="yes"/>
    </contour>
  </outline>
</glyph>
<glyph name="uniA904" format="2">
  <advance width="772"/>
  <unicode hex="A904"/>
  <outline>
    <contour>
      <point x="494" y="-5" type="line"/>
      <point x="520" y="-5" type="line" smooth="yes"/>
      <point x="637" y="-5"/>
      <point x="684" y="60"/>
      <point x="684" y="170" type="curve" smooth="yes"/>
      <point x="684" y="546" type="line"/>
      <point x="607" y="546" type="line" smooth="yes"/>
      <point x="437" y="546"/>
      <point x="242" y="456"/>
      <point x="170" y="351" type="curve"/>
      <point x="165" y="352" type="line"/>
      <point x="169" y="369"/>
      <point x="174" y="408"/>
      <point x="174" y="458" type="curve" smooth="yes"/>
      <point x="174" y="536" type="line"/>
      <point x="88" y="536" type="line"/>
      <point x="88" y="230" type="line"/>
      <point x="174" y="230" type="line"/>
      <point x="197" y="333"/>
      <point x="397" y="476"/>
      <point x="598" y="476" type="curve"/>
      <point x="598" y="155" type="line" smooth="yes"/>
      <point x="598" y="90"/>
      <point x="562" y="67"/>
      <point x="527" y="67" type="curve"/>
      <point x="494" y="67" type="line"/>
    </contour>
  </outline>
</glyph>
<glyph name="uniA905" format="2">
  <advance width="772"/>
  <unicode hex="A905"/>
  <outline>
    <contour>
      <point x="88" y="0" type="line"/>
      <point x="329" y="0" type="line"/>
      <point x="329" y="69" type="line"/>
      <point x="174" y="69" type="line"/>
      <point x="174" y="467" type="line"/>
      <point x="684" y="467" type="line"/>
      <point x="684" y="536" type="line"/>
      <point x="88" y="536" type="line"/>
    </contour>
  </outline>
</glyph>
<glyph name="uniA906" format="2">
  <advance width="772"/>
  <unicode hex="A906"/>
  <outline>
    <contour>
      <point x="548" y="-10" type="curve" smooth="yes"/>
      <point x="637" y="-10"/>
      <point x="684" y="42"/>
      <point x="684" y="152" type="curve" smooth="yes"/>
      <point x="684" y="546" type="line"/>
      <point x="607" y="546" type="line"/>
      <point x="174" y="283" type="line"/>
      <point x="174" y="536" type="line"/>
      <point x="88" y="536" type="line"/>
      <point x="88" y="0" type="line"/>
      <point x="174" y="0" type="line"/>
      <point x="174" y="200" type="line"/>
      <point x="598" y="458" type="line"/>
      <point x="598" y="214" type="line"/>
      <point x="586" y="219"/>
      <point x="566" y="224"/>
      <point x="546" y="224" type="curve" smooth="yes"/>
      <point x="448" y="224"/>
      <point x="415" y="176"/>
      <point x="415" y="107" type="curve" smooth="yes"/>
      <point x="415" y="39"/>
      <point x="447" y="-10"/>
    </contour>
    <contour>
      <point x="547" y="49" type="curve" smooth="yes"/>
      <point x="519" y="49"/>
      <point x="486" y="65"/>
      <point x="486" y="107" type="curve" smooth="yes"/>
      <point x="486" y="147"/>
      <point x="516" y="165"/>
      <point x="547" y="165" type="curve" smooth="yes"/>
      <point x="568" y="165"/>
      <point x="586" y="156"/>
      <point x="598" y="151" type="curve"/>
      <point x="598" y="137" type="line" smooth="yes"/>
      <point x="598" y="72"/>
      <point x="577" y="49"/>
    </contour>
  </outline>
</glyph>
<glyph name="uniA907" format="2">
  <advance width="772"/>
  <unicode hex="A907"/>
  <outline>
    <contour>
      <point x="382" y="-10" type="curve"/>
      <point x="628" y="-10"/>
      <point x="684" y="49"/>
      <point x="684" y="272" type="curve" smooth="yes"/>
      <point x="684" y="536" type="line"/>
      <point x="598" y="536" type="line"/>
      <point x="598" y="272" type="line" smooth="yes"/>
      <point x="598" y="107"/>
      <point x="563" y="60"/>
      <point x="385" y="60" type="curve" smooth="yes"/>
      <point x="210" y="60"/>
      <point x="174" y="113"/>
      <point x="174" y="272" type="curve" smooth="yes"/>
      <point x="174" y="411" type="line"/>
      <point x="88" y="411" type="line"/>
      <point x="88" y="272" type="line" smooth="yes"/>
      <point x="88" y="49"/>
      <point x="154" y="-10"/>
    </contour>
    <contour>
      <point x="443" y="466" type="line"/>
      <point x="640" y="466" type="line"/>
      <point x="641" y="480"/>
      <point x="641" y="496"/>
      <point x="641" y="509" type="curve"/>
      <point x="608" y="536" type="line"/>
      <point x="443" y="536" type="line"/>
    </contour>
  </outline>
</glyph>
<glyph name="uniA908" format="2">
  <advance width="772"/>
  <unicode hex="A908"/>
  <outline>
    <contour>
      <point x="88" y="0" type="line"/>
      <point x="684" y="0" type="line"/>
      <point x="684" y="261" type="line"/>
      <point x="598" y="261" type="line"/>
      <point x="598" y="69" type="line"/>
      <point x="174" y="69" type="line"/>
      <point x="174" y="536" type="line"/>
      <point x="88" y="536" type="line"/>
    </contour>
  </outline>
</glyph>
<glyph name="uniA909" format="2">
  <advance width="772"/>
  <unicode hex="A909"/>
  <outline>
    <contour>
      <point x="382" y="-10" type="curve"/>
      <point x="628" y="-10"/>
      <point x="684" y="49"/>
      <point x="684" y="272" type="curve" smooth="yes"/>
      <point x="684" y="411" type="line"/>
      <point x="598" y="411" type="line"/>
      <point x="598" y="272" type="line" smooth="yes"/>
      <point x="598" y="107"/>
      <point x="563" y="60"/>
      <point x="385" y="60" type="curve"/>
      <point x="210" y="60"/>
      <point x="174" y="113"/>
      <point x="174" y="272" type="curve" smooth="yes"/>
      <point x="174" y="536" type="line"/>
      <point x="88" y="536" type="line"/>
      <point x="88" y="272" type="line" smooth="yes"/>
      <point x="88" y="49"/>
      <point x="154" y="-10"/>
    </contour>
    <contour>
      <point x="132" y="467" type="curve"/>
      <point x="329" y="467" type="line"/>
      <point x="329" y="536" type="line"/>
      <point x="164" y="536" type="line"/>
      <point x="131" y="509" type="line"/>
      <point x="131" y="496"/>
      <point x="131" y="481"/>
    </contour>
  </outline>
</glyph>
<glyph name="uniA90A" format="2">
  <advance width="772"/>
  <unicode hex="A90A"/>
  <anchor x="385" y="0" name="bottom"/>
  <anchor x="175" y="0" name="bottom_alt"/>
  <anchor x="385" y="605" name="top"/>
  <outline>
    <contour>
      <point x="88" y="0" type="line"/>
      <point x="163" y="33" type="line"/>
      <point x="163" y="42"/>
      <point x="162" y="52"/>
      <point x="162" y="61" type="curve" smooth="yes"/>
      <point x="162" y="369"/>
      <point x="434" y="477"/>
      <point x="598" y="477" type="curve"/>
      <point x="598" y="0" type="line"/>
      <point x="684" y="0" type="line"/>
      <point x="684" y="546" type="line"/>
      <point x="607" y="546" type="line" smooth="yes"/>
      <point x="366" y="546"/>
      <point x="88" y="370"/>
      <point x="88" y="54" type="curve" smooth="yes"/>
    </contour>
    <contour>
      <point x="88" y="0" type="line"/>
      <point x="195" y="0" type="line" smooth="yes"/>
      <point x="302" y="0"/>
      <point x="342" y="55"/>
      <point x="342" y="145" type="curve" smooth="yes"/>
      <point x="342" y="536" type="line"/>
      <point x="88" y="536" type="line"/>
      <point x="88" y="466" type="line"/>
      <point x="257" y="466" type="line"/>
      <point x="257" y="130" type="line" smooth="yes"/>
      <point x="257" y="85"/>
      <point x="230" y="69"/>
      <point x="205" y="69" type="curve" smooth="yes"/>
      <point x="152" y="69" type="line"/>
    </contour>
  </outline>
</glyph>
<glyph name="uniA90B" format="2">
  <advance width="772"/>
  <unicode hex="A90B"/>
  <anchor x="385" y="0" name="bottom"/>
  <anchor x="175" y="0" name="bottom_alt"/>
  <anchor x="385" y="605" name="top"/>
  <outline>
    <contour>
      <point x="385" y="-10" type="curve" smooth="yes"/>
      <point x="620" y="-10"/>
      <point x="684" y="50"/>
      <point x="684" y="264" type="curve" smooth="yes"/>
      <point x="684" y="487"/>
      <point x="618" y="546"/>
      <point x="390" y="546" type="curve" smooth="yes"/>
      <point x="189" y="546"/>
      <point x="88" y="504"/>
      <point x="88" y="301" type="curve" smooth="yes"/>
      <point x="88" y="288"/>
      <point x="88" y="271"/>
      <point x="89" y="257" type="curve"/>
      <point x="633" y="257" type="line"/>
      <point x="633" y="326" type="line"/>
      <point x="174" y="326" type="line"/>
      <point x="182" y="438"/>
      <point x="217" y="476"/>
      <point x="387" y="476" type="curve" smooth="yes"/>
      <point x="562" y="476"/>
      <point x="595" y="423"/>
      <point x="595" y="264" type="curve" smooth="yes"/>
      <point x="595" y="100"/>
      <point x="569" y="60"/>
      <point x="388" y="60" type="curve" smooth="yes"/>
      <point x="237" y="60"/>
      <point x="173" y="88"/>
      <point x="173" y="205" type="curve"/>
      <point x="88" y="205" type="line"/>
      <point x="88" y="22"/>
      <point x="187" y="-10"/>
    </contour>
  </outline>
</glyph>
<glyph name="uniA90C" format="2">
  <advance width="772"/>
  <unicode hex="A90C"/>
  <anchor x="385" y="0" name="bottom"/>
  <anchor x="175" y="0" name="bottom_alt"/>
  <anchor x="385" y="605" name="top"/>
  <outline>
    <contour>
      <point x="88" y="0" type="line"/>
      <point x="174" y="0" type="line"/>
      <point x="174" y="53" type="line" smooth="yes"/>
      <point x="174" y="362"/>
      <point x="434" y="479"/>
      <point x="598" y="479" type="curve"/>
      <point x="598" y="0" type="line"/>
      <point x="684" y="0" type="line"/>
      <point x="684" y="546" type="line"/>
      <point x="607" y="546" type="line" smooth="yes"/>
      <point x="474" y="546"/>
      <point x="326" y="490"/>
      <point x="233" y="391" type="curve" smooth="yes"/>
      <point x="204" y="360"/>
      <point x="185" y="334"/>
      <point x="170" y="281" type="curve"/>
      <point x="165" y="282" type="line"/>
      <point x="168" y="299"/>
      <point x="174" y="334"/>
      <point x="174" y="391" type="curve" smooth="yes"/>
      <point x="174" y="536" type="line"/>
      <point x="88" y="536" type="line"/>
    </contour>
    <contour>
      <point x="127" y="207" type="line"/>
      <point x="633" y="207" type="line"/>
      <point x="633" y="276" type="line"/>
      <point x="203" y="276" type="line"/>
    </contour>
  </outline>
</glyph>
<glyph name="uniA90D" format="2">
  <advance width="772"/>
  <unicode hex="A90D"/>
  <anchor x="385" y="0" name="bottom"/>
  <anchor x="175" y="0" name="bottom_alt"/>
  <anchor x="385" y="605" name="top"/>
  <outline>
    <contour>
      <point x="382" y="-10" type="curve" smooth="yes"/>
      <point x="587" y="-10"/>
      <point x="684" y="31"/>
      <point x="684" y="208" type="curve"/>
      <point x="600" y="208" type="line"/>
      <point x="600" y="95"/>
      <point x="545" y="60"/>
      <point x="385" y="60" type="curve" smooth="yes"/>
      <point x="210" y="60"/>
      <point x="177" y="113"/>
      <point x="177" y="272" type="curve" smooth="yes"/>
      <point x="177" y="436"/>
      <point x="203" y="476"/>
      <point x="384" y="476" type="curve" smooth="yes"/>
      <point x="526" y="476"/>
      <point x="601" y="445"/>
      <point x="601" y="331" type="curve"/>
      <point x="684" y="331" type="line"/>
      <point x="684" y="512"/>
      <point x="585" y="546"/>
      <point x="387" y="546" type="curve" smooth="yes"/>
      <point x="149" y="546"/>
      <point x="88" y="489"/>
      <point x="88" y="272" type="curve" smooth="yes"/>
      <point x="88" y="49"/>
      <point x="154" y="-10"/>
    </contour>
  </outline>
</glyph>
<glyph name="uniA90E" format="2">
  <advance width="772"/>
  <unicode hex="A90E"/>
  <anchor x="385" y="0" name="bottom"/>
  <anchor x="175" y="0" name="bottom_alt"/>
  <anchor x="385" y="605" name="top"/>
  <outline>
    <contour>
      <point x="88" y="0" type="line"/>
      <point x="365" y="0" type="line"/>
      <point x="365" y="69" type="line"/>
      <point x="205" y="69" type="line"/>
      <point x="271" y="170" type="line"/>
      <point x="284" y="162"/>
      <point x="323" y="143"/>
      <point x="367" y="143" type="curve" smooth="yes"/>
      <point x="422" y="143"/>
      <point x="489" y="179"/>
      <point x="489" y="253" type="curve" smooth="yes"/>
      <point x="489" y="318"/>
      <point x="434" y="345"/>
      <point x="388" y="345" type="curve" smooth="yes"/>
      <point x="333" y="345"/>
      <point x="298" y="321"/>
      <point x="243" y="242" type="curve"/>
      <point x="186" y="279"/>
      <point x="174" y="299"/>
      <point x="174" y="364" type="curve" smooth="yes"/>
      <point x="174" y="435"/>
      <point x="226" y="476"/>
      <point x="388" y="476" type="curve" smooth="yes"/>
      <point x="554" y="476"/>
      <point x="598" y="436"/>
      <point x="598" y="272" type="curve" smooth="yes"/>
      <point x="598" y="0" type="line"/>
      <point x="684" y="0" type="line"/>
      <point x="684" y="272" type="line" smooth="yes"/>
      <point x="684" y="494"/>
      <point x="637" y="546"/>
      <point x="385" y="546" type="curve" smooth="yes"/>
      <point x="179" y="546"/>
      <point x="88" y="488"/>
      <point x="88" y="367" type="curve" smooth="yes"/>
      <point x="88" y="269"/>
      <point x="154" y="230"/>
      <point x="212" y="196" type="curve"/>
      <point x="88" y="13" type="line"/>
    </contour>
    <contour>
      <point x="366" y="193" type="curve" smooth="yes"/>
      <point x="343" y="193"/>
      <point x="306" y="207"/>
      <point x="300" y="213" type="curve"/>
      <point x="340" y="273"/>
      <point x="358" y="294"/>
      <point x="385" y="294" type="curve" smooth="yes"/>
      <point x="409" y="294"/>
      <point x="429" y="277"/>
      <point x="429" y="246" type="curve" smooth="yes"/>
      <point x="429" y="212"/>
      <point x="402" y="193"/>
    </contour>
  </outline>
</glyph>
<glyph name="uniA90F" format="2">
  <advance width="772"/>
  <unicode hex="A90F"/>
  <anchor x="385" y="0" name="bottom"/>
  <anchor x="175" y="0" name="bottom_alt"/>
  <anchor x="385" y="605" name="top"/>
  <outline>
    <contour>
      <point x="88" y="-4" type="line"/>
      <point x="212" y="-4"/>
      <point x="259" y="31"/>
      <point x="259" y="147" type="curve" smooth="yes"/>
      <point x="259" y="308" type="line"/>
      <point x="409" y="308"/>
      <point x="564" y="176"/>
      <point x="598" y="0" type="curve"/>
      <point x="684" y="0" type="line"/>
      <point x="684" y="536" type="line"/>
      <point x="88" y="536" type="line"/>
      <point x="88" y="467" type="line"/>
      <point x="598" y="467" type="line"/>
      <point x="598" y="261" type="line" smooth="yes"/>
      <point x="598" y="204"/>
      <point x="604" y="169"/>
      <point x="607" y="152" type="curve"/>
      <point x="602" y="151" type="line"/>
      <point x="561" y="289"/>
      <point x="402" y="375"/>
      <point x="266" y="375" type="curve" smooth="yes"/>
      <point x="173" y="375" type="line"/>
      <point x="173" y="140" type="line" smooth="yes"/>
      <point x="173" y="86"/>
      <point x="130" y="65"/>
      <point x="88" y="65" type="curve"/>
    </contour>
  </outline>
</glyph>
<glyph name="uniA911" format="2">
  <advance width="772"/>
  <unicode hex="A911"/>
  <anchor x="385" y="19" name="bottom"/>
  <anchor x="175" y="-220" name="bottom_alt"/>
  <anchor x="385" y="605" name="top"/>
  <outline>
    <contour>
      <point x="373" y="-240" type="curve" smooth="yes"/>
      <point x="613" y="-240"/>
      <point x="668" y="-211"/>
      <point x="668" y="-91" type="curve"/>
      <point x="580" y="-91" type="line"/>
      <point x="580" y="-157"/>
      <point x="541" y="-170"/>
      <point x="374" y="-170" type="curve" smooth="yes"/>
      <point x="210" y="-170"/>
      <point x="178" y="-137"/>
      <point x="178" y="0" type="curve" smooth="yes"/>
      <point x="178" y="14"/>
      <point x="177" y="27"/>
      <point x="174" y="44" type="curve"/>
      <point x="178" y="46" type="line"/>
      <point x="211" y="-3"/>
      <point x="252" y="-10"/>
      <point x="390" y="-10" type="curve" smooth="yes"/>
      <point x="623" y="-10"/>
      <point x="684" y="57"/>
      <point x="684" y="272" type="curve" smooth="yes"/>
      <point x="684" y="494"/>
      <point x="617" y="546"/>
      <point x="385" y="546" type="curve" smooth="yes"/>
      <point x="187" y="546"/>
      <point x="89" y="505"/>
      <point x="89" y="329" type="curve"/>
      <point x="172" y="329" type="line"/>
      <point x="172" y="443"/>
      <point x="246" y="476"/>
      <point x="388" y="476" type="curve" smooth="yes"/>
      <point x="557" y="476"/>
      <point x="595" y="436"/>
      <point x="595" y="272" type="curve" smooth="yes"/>
      <point x="595" y="113"/>
      <point x="577" y="60"/>
      <point x="387" y="60" type="curve" smooth="yes"/>
      <point x="226" y="60"/>
      <point x="174" y="91"/>
      <point x="174" y="206" type="curve"/>
      <point x="88" y="206" type="line"/>
      <point x="88" y="34" type="line" smooth="yes"/>
      <point x="88" y="-188"/>
      <point x="125" y="-240"/>
    </contour>
  </outline>
</glyph>
<glyph name="uniA912" format="2">
  <advance width="772"/>
  <unicode hex="A912"/>
  <anchor x="385" y="0" name="bottom"/>
  <anchor x="175" y="0" name="bottom_alt"/>
  <anchor x="385" y="605" name="top"/>
  <outline>
    <contour>
      <point x="548" y="-10" type="curve" smooth="yes"/>
      <point x="637" y="-10"/>
      <point x="684" y="52"/>
      <point x="684" y="142" type="curve" smooth="yes"/>
      <point x="684" y="242"/>
      <point x="608" y="336"/>
      <point x="450" y="336" type="curve" smooth="yes"/>
      <point x="337" y="336"/>
      <point x="243" y="290"/>
      <point x="170" y="165" type="curve"/>
      <point x="165" y="166" type="line"/>
      <point x="168" y="183"/>
      <point x="174" y="218"/>
      <point x="174" y="275" type="curve" smooth="yes"/>
      <point x="174" y="462" type="line"/>
      <point x="670" y="356" type="line"/>
      <point x="670" y="429" type="line"/>
      <point x="174" y="536" type="line"/>
      <point x="88" y="536" type="line"/>
      <point x="88" y="0" type="line"/>
      <point x="174" y="0" type="line"/>
      <point x="174" y="113"/>
      <point x="298" y="269"/>
      <point x="450" y="269" type="curve" smooth="yes"/>
      <point x="501" y="269"/>
      <point x="553" y="254"/>
      <point x="582" y="217" type="curve"/>
      <point x="572" y="221"/>
      <point x="559" y="224"/>
      <point x="546" y="224" type="curve" smooth="yes"/>
      <point x="459" y="224"/>
      <point x="415" y="176"/>
      <point x="415" y="107" type="curve" smooth="yes"/>
      <point x="415" y="39"/>
      <point x="447" y="-10"/>
    </contour>
    <contour>
      <point x="547" y="49" type="curve" smooth="yes"/>
      <point x="519" y="49"/>
      <point x="486" y="65"/>
      <point x="486" y="107" type="curve" smooth="yes"/>
      <point x="486" y="147"/>
      <point x="516" y="165"/>
      <point x="547" y="165" type="curve" smooth="yes"/>
      <point x="575" y="165"/>
      <point x="597" y="152"/>
      <point x="607" y="146" type="curve"/>
      <point x="607" y="140"/>
      <point x="608" y="134"/>
      <point x="608" y="127" type="curve" smooth="yes"/>
      <point x="608" y="80"/>
      <point x="577" y="49"/>
    </contour>
  </outline>
</glyph>
<glyph name="uniA913" format="2">
  <advance width="772"/>
  <unicode hex="A913"/>
  <anchor x="385" y="0" name="bottom"/>
  <anchor x="175" y="0" name="bottom_alt"/>
  <anchor x="385" y="781" name="top"/>
  <outline>
    <contour>
      <point x="382" y="-10" type="curve"/>
      <point x="628" y="-10"/>
      <point x="684" y="49"/>
      <point x="684" y="272" type="curve" smooth="yes"/>
      <point x="684" y="714" type="line"/>
      <point x="598" y="714" type="line"/>
      <point x="598" y="272" type="line" smooth="yes"/>
      <point x="598" y="107"/>
      <point x="563" y="60"/>
      <point x="385" y="60" type="curve" smooth="yes"/>
      <point x="210" y="60"/>
      <point x="173" y="113"/>
      <point x="173" y="272" type="curve" smooth="yes"/>
      <point x="173" y="536" type="line"/>
      <point x="88" y="536" type="line"/>
      <point x="88" y="272" type="line" smooth="yes"/>
      <point x="88" y="49"/>
      <point x="154" y="-10"/>
    </contour>
    <contour>
      <point x="443" y="467" type="line"/>
      <point x="642" y="467" type="line"/>
      <point x="643" y="481"/>
      <point x="643" y="496"/>
      <point x="643" y="509" type="curve"/>
      <point x="598" y="536" type="line"/>
      <point x="443" y="536" type="line"/>
    </contour>
  </outline>
</glyph>
<glyph name="uniA914" format="2">
  <advance width="772"/>
  <unicode hex="A914"/>
  <anchor x="385" y="19" name="bottom"/>
  <anchor x="175" y="-220" name="bottom_alt"/>
  <anchor x="385" y="605" name="top"/>
  <outline>
    <contour>
      <point x="387" y="-240" type="curve" smooth="yes"/>
      <point x="525" y="-240" type="line"/>
      <point x="525" y="-169" type="line"/>
      <point x="387" y="-169" type="line" smooth="yes"/>
      <point x="223" y="-169"/>
      <point x="178" y="-137"/>
      <point x="178" y="-37" type="curve" smooth="yes"/>
      <point x="178" y="11"/>
      <point x="174" y="23"/>
      <point x="163" y="51" type="curve"/>
      <point x="167" y="52" type="line"/>
      <point x="191" y="3"/>
      <point x="259" y="-10"/>
      <point x="383" y="-10" type="curve" smooth="yes"/>
      <point x="623" y="-10"/>
      <point x="684" y="48"/>
      <point x="684" y="145" type="curve" smooth="yes"/>
      <point x="684" y="235"/>
      <point x="656" y="278"/>
      <point x="498" y="304" type="curve" smooth="yes"/>
      <point x="314" y="334" type="line" smooth="yes"/>
      <point x="213" y="350"/>
      <point x="187" y="366"/>
      <point x="187" y="406" type="curve" smooth="yes"/>
      <point x="187" y="438"/>
      <point x="208" y="475"/>
      <point x="384" y="475" type="curve" smooth="yes"/>
      <point x="526" y="475"/>
      <point x="591" y="445"/>
      <point x="591" y="351" type="curve"/>
      <point x="674" y="351" type="line"/>
      <point x="674" y="509"/>
      <point x="585" y="546"/>
      <point x="387" y="546" type="curve" smooth="yes"/>
      <point x="149" y="546"/>
      <point x="98" y="488"/>
      <point x="98" y="397" type="curve" smooth="yes"/>
      <point x="98" y="331"/>
      <point x="116" y="290"/>
      <point x="251" y="267" type="curve" smooth="yes"/>
      <point x="458" y="232" type="line" smooth="yes"/>
      <point x="559" y="215"/>
      <point x="595" y="197"/>
      <point x="595" y="146" type="curve" smooth="yes"/>
      <point x="595" y="95"/>
      <point x="570" y="60"/>
      <point x="387" y="60" type="curve" smooth="yes"/>
      <point x="238" y="60"/>
      <point x="178" y="89"/>
      <point x="178" y="144" type="curve"/>
      <point x="257" y="144" type="line"/>
      <point x="257" y="213" type="line"/>
      <point x="88" y="213" type="line"/>
      <point x="88" y="34" type="line" smooth="yes"/>
      <point x="88" y="-188"/>
      <point x="139" y="-240"/>
    </contour>
  </outline>
</glyph>
<glyph name="uniA915" format="2">
  <advance width="772"/>
  <unicode hex="A915"/>
  <anchor x="385" y="0" name="bottom"/>
  <anchor x="175" y="0" name="bottom_alt"/>
  <anchor x="385" y="605" name="top"/>
  <outline>
    <contour>
      <point x="382" y="-10" type="curve" smooth="yes"/>
      <point x="587" y="-10"/>
      <point x="684" y="39"/>
      <point x="684" y="208" type="curve"/>
      <point x="600" y="208" type="line"/>
      <point x="600" y="93"/>
      <point x="545" y="60"/>
      <point x="385" y="60" type="curve" smooth="yes"/>
      <point x="210" y="60"/>
      <point x="177" y="113"/>
      <point x="177" y="272" type="curve" smooth="yes"/>
      <point x="177" y="436"/>
      <point x="203" y="475"/>
      <point x="384" y="475" type="curve" smooth="yes"/>
      <point x="512" y="475"/>
      <point x="579" y="451"/>
      <point x="591" y="375" type="curve"/>
      <point x="151" y="304" type="line"/>
      <point x="163" y="233" type="line"/>
      <point x="684" y="318" type="line"/>
      <point x="679" y="503"/>
      <point x="597" y="546"/>
      <point x="387" y="546" type="curve" smooth="yes"/>
      <point x="149" y="546"/>
      <point x="88" y="489"/>
      <point x="88" y="272" type="curve" smooth="yes"/>
      <point x="88" y="49"/>
      <point x="154" y="-10"/>
    </contour>
  </outline>
</glyph>
<glyph name="uniA916" format="2">
  <advance width="772"/>
  <unicode hex="A916"/>
  <anchor x="385" y="0" name="bottom"/>
  <anchor x="175" y="0" name="bottom_alt"/>
  <anchor x="385" y="781" name="top"/>
  <outline>
    <contour>
      <point x="717" y="-4" type="curve"/>
      <point x="717" y="65" type="line"/>
      <point x="675" y="65"/>
      <point x="664" y="83"/>
      <point x="664" y="137" type="curve" smooth="yes"/>
      <point x="664" y="515" type="line"/>
      <point x="585" y="515" type="line" smooth="yes"/>
      <point x="452" y="515"/>
      <point x="326" y="460"/>
      <point x="233" y="361" type="curve" smooth="yes"/>
      <point x="204" y="330"/>
      <point x="185" y="304"/>
      <point x="170" y="251" type="curve"/>
      <point x="165" y="252" type="line"/>
      <point x="168" y="269"/>
      <point x="174" y="304"/>
      <point x="174" y="361" type="curve" smooth="yes"/>
      <point x="174" y="494" type="line" smooth="yes"/>
      <point x="174" y="631"/>
      <point x="220" y="663"/>
      <point x="388" y="663" type="curve" smooth="yes"/>
      <point x="535" y="663"/>
      <point x="572" y="648"/>
      <point x="572" y="595" type="curve"/>
      <point x="663" y="595" type="line"/>
      <point x="663" y="706"/>
      <point x="589" y="734"/>
      <point x="387" y="734" type="curve" smooth="yes"/>
      <point x="139" y="734"/>
      <point x="88" y="682"/>
      <point x="88" y="460" type="curve" smooth="yes"/>
      <point x="88" y="0" type="line"/>
      <point x="174" y="0" type="line"/>
      <point x="174" y="23" type="line" smooth="yes"/>
      <point x="174" y="332"/>
      <point x="414" y="445"/>
      <point x="578" y="445" type="curve"/>
      <point x="578" y="124" type="line" smooth="yes"/>
      <point x="578" y="31"/>
      <point x="593" y="-4"/>
    </contour>
  </outline>
</glyph>
<glyph name="uniA917" format="2">
  <advance width="772"/>
  <unicode hex="A917"/>
  <anchor x="385" y="0" name="bottom"/>
  <anchor x="175" y="0" name="bottom_alt"/>
  <anchor x="385" y="605" name="top"/>
  <outline>
    <contour>
      <point x="382" y="-10" type="curve" smooth="yes"/>
      <point x="628" y="-10"/>
      <point x="684" y="49"/>
      <point x="684" y="272" type="curve" smooth="yes"/>
      <point x="684" y="536" type="line"/>
      <point x="598" y="536" type="line"/>
      <point x="598" y="272" type="line"/>
      <point x="598" y="107"/>
      <point x="563" y="60"/>
      <point x="385" y="60" type="curve" smooth="yes"/>
      <point x="210" y="60"/>
      <point x="174" y="113"/>
      <point x="174" y="272" type="curve" smooth="yes"/>
      <point x="174" y="536" type="line"/>
      <point x="88" y="536" type="line"/>
      <point x="88" y="272" type="line"/>
      <point x="88" y="49"/>
      <point x="154" y="-10"/>
    </contour>
    <contour>
      <point x="174" y="106" type="line"/>
      <point x="383" y="266" type="line"/>
      <point x="600" y="106" type="line"/>
      <point x="600" y="198" type="line"/>
      <point x="383" y="358" type="line"/>
      <point x="174" y="198" type="line"/>
    </contour>
  </outline>
</glyph>
<glyph name="uniA918" format="2">
  <advance width="772"/>
  <unicode hex="A918"/>
  <anchor x="385" y="0" name="bottom"/>
  <anchor x="175" y="0" name="bottom_alt"/>
  <anchor x="385" y="605" name="top"/>
  <outline>
    <contour>
      <point x="88" y="0" type="line"/>
      <point x="539" y="0" type="line" smooth="yes"/>
      <point x="629" y="0"/>
      <point x="684" y="24"/>
      <point x="684" y="131" type="curve" smooth="yes"/>
      <point x="684" y="259" type="line"/>
      <point x="632" y="259" type="line" smooth="yes"/>
      <point x="482" y="259"/>
      <point x="361" y="162"/>
      <point x="278" y="69" type="curve"/>
      <point x="187" y="69" type="line"/>
      <point x="654" y="523" type="line"/>
      <point x="654" y="536" type="line"/>
      <point x="108" y="536" type="line"/>
      <point x="108" y="464" type="line"/>
      <point x="485" y="464" type="line"/>
      <point x="88" y="76" type="line"/>
    </contour>
    <contour>
      <point x="372" y="69" type="line"/>
      <point x="430" y="119"/>
      <point x="499" y="180"/>
      <point x="598" y="184" type="curve"/>
      <point x="598" y="124" type="line" smooth="yes"/>
      <point x="598" y="99"/>
      <point x="586" y="69"/>
      <point x="541" y="69" type="curve" smooth="yes"/>
    </contour>
  </outline>
</glyph>
<glyph name="uniA919" format="2">
  <advance width="772"/>
  <unicode hex="A919"/>
  <anchor x="385" y="0" name="bottom"/>
  <anchor x="175" y="0" name="bottom_alt"/>
  <anchor x="385" y="605" name="top"/>
  <outline>
    <contour>
      <point x="548" y="-10" type="curve" smooth="yes"/>
      <point x="637" y="-10"/>
      <point x="684" y="42"/>
      <point x="684" y="152" type="curve" smooth="yes"/>
      <point x="684" y="546" type="line"/>
      <point x="607" y="546" type="line" smooth="yes"/>
      <point x="474" y="546"/>
      <point x="326" y="490"/>
      <point x="233" y="391" type="curve" smooth="yes"/>
      <point x="204" y="360"/>
      <point x="185" y="334"/>
      <point x="170" y="281" type="curve"/>
      <point x="165" y="282" type="line"/>
      <point x="168" y="299"/>
      <point x="174" y="334"/>
      <point x="174" y="391" type="curve" smooth="yes"/>
      <point x="174" y="536" type="line"/>
      <point x="88" y="536" type="line"/>
      <point x="88" y="0" type="line"/>
      <point x="174" y="0" type="line"/>
      <point x="174" y="53" type="line" smooth="yes"/>
      <point x="174" y="362"/>
      <point x="434" y="479"/>
      <point x="598" y="479" type="curve"/>
      <point x="598" y="137" type="line" smooth="yes"/>
      <point x="598" y="72"/>
      <point x="577" y="49"/>
      <point x="547" y="49" type="curve" smooth="yes"/>
      <point x="519" y="49"/>
      <point x="486" y="65"/>
      <point x="486" y="107" type="curve" smooth="yes"/>
      <point x="486" y="147"/>
      <point x="516" y="165"/>
      <point x="547" y="165" type="curve" smooth="yes"/>
      <point x="583" y="165"/>
      <point x="605" y="149"/>
      <point x="612" y="145" type="curve"/>
      <point x="612" y="206" type="line"/>
      <point x="605" y="210"/>
      <point x="580" y="224"/>
      <point x="546" y="224" type="curve" smooth="yes"/>
      <point x="448" y="224"/>
      <point x="415" y="176"/>
      <point x="415" y="107" type="curve" smooth="yes"/>
      <point x="415" y="39"/>
      <point x="447" y="-10"/>
    </contour>
  </outline>
</glyph>
<glyph name="uniA91A" format="2">
  <advance width="772"/>
  <unicode hex="A91A"/>
  <anchor x="385" y="0" name="bottom"/>
  <anchor x="175" y="-10" name="bottom_alt"/>
  <anchor x="385" y="605" name="top"/>
  <outline>
    <contour>
      <point x="494" y="-240" type="line"/>
      <point x="520" y="-240" type="line" smooth="yes"/>
      <point x="637" y="-240"/>
      <point x="684" y="-175"/>
      <point x="684" y="-65" type="curve" smooth="yes"/>
      <point x="684" y="546" type="line"/>
      <point x="607" y="546" type="line" smooth="yes"/>
      <point x="474" y="546"/>
      <point x="325" y="490"/>
      <point x="232" y="391" type="curve" smooth="yes"/>
      <point x="203" y="360"/>
      <point x="184" y="334"/>
      <point x="169" y="281" type="curve"/>
      <point x="164" y="282" type="line"/>
      <point x="167" y="299"/>
      <point x="173" y="334"/>
      <point x="173" y="391" type="curve" smooth="yes"/>
      <point x="173" y="536" type="line"/>
      <point x="88" y="536" type="line"/>
      <point x="88" y="0" type="line"/>
      <point x="173" y="0" type="line"/>
      <point x="173" y="53" type="line" smooth="yes"/>
      <point x="173" y="362"/>
      <point x="434" y="479"/>
      <point x="598" y="479" type="curve"/>
      <point x="598" y="-83" type="line" smooth="yes"/>
      <point x="598" y="-148"/>
      <point x="562" y="-171"/>
      <point x="527" y="-171" type="curve" smooth="yes"/>
      <point x="494" y="-171" type="line"/>
    </contour>
  </outline>
</glyph>
<glyph name="uniA91B" format="2">
  <advance width="812"/>
  <unicode hex="A91B"/>
  <anchor x="385" y="0" name="bottom"/>
  <anchor x="175" y="0" name="bottom_alt"/>
  <anchor x="385" y="605" name="top"/>
  <outline>
    <contour>
      <point x="267" y="-10" type="curve" smooth="yes"/>
      <point x="385" y="-10"/>
      <point x="448" y="36"/>
      <point x="448" y="160" type="curve" smooth="yes"/>
      <point x="448" y="375" type="line" smooth="yes"/>
      <point x="448" y="448"/>
      <point x="488" y="474"/>
      <point x="541" y="474" type="curve" smooth="yes"/>
      <point x="603" y="474"/>
      <point x="635" y="449"/>
      <point x="635" y="282" type="curve" smooth="yes"/>
      <point x="635" y="0" type="line"/>
      <point x="724" y="0" type="line"/>
      <point x="724" y="282" type="line" smooth="yes"/>
      <point x="724" y="494"/>
      <point x="682" y="545"/>
      <point x="542" y="545" type="curve" smooth="yes"/>
      <point x="424" y="545"/>
      <point x="363" y="499"/>
      <point x="363" y="375" type="curve" smooth="yes"/>
      <point x="363" y="160" type="line" smooth="yes"/>
      <point x="363" y="87"/>
      <point x="321" y="61"/>
      <point x="274" y="61" type="curve" smooth="yes"/>
      <point x="206" y="61"/>
      <point x="177" y="84"/>
      <point x="177" y="253" type="curve" smooth="yes"/>
      <point x="177" y="535" type="line"/>
      <point x="88" y="535" type="line"/>
      <point x="88" y="253" type="line" smooth="yes"/>
      <point x="88" y="41"/>
      <point x="127" y="-10"/>
    </contour>
  </outline>
</glyph>
<glyph name="uniA91C" format="2">
  <advance width="812"/>
  <unicode hex="A91C"/>
  <anchor x="385" y="19" name="bottom"/>
  <anchor x="175" y="-220" name="bottom_alt"/>
  <anchor x="385" y="605" name="top"/>
  <outline>
    <contour>
      <point x="405" y="-240" type="curve" smooth="yes"/>
      <point x="653" y="-240"/>
      <point x="724" y="-188"/>
      <point x="724" y="34" type="curve" smooth="yes"/>
      <point x="724" y="535" type="line"/>
      <point x="635" y="535" type="line"/>
      <point x="635" y="253" type="line" smooth="yes"/>
      <point x="635" y="77"/>
      <point x="602" y="61"/>
      <point x="534" y="61" type="curve" smooth="yes"/>
      <point x="487" y="61"/>
      <point x="449" y="87"/>
      <point x="449" y="160" type="curve" smooth="yes"/>
      <point x="449" y="375" type="line" smooth="yes"/>
      <point x="449" y="499"/>
      <point x="392" y="545"/>
      <point x="274" y="545" type="curve" smooth="yes"/>
      <point x="134" y="545"/>
      <point x="88" y="494"/>
      <point x="88" y="282" type="curve" smooth="yes"/>
      <point x="88" y="0" type="line"/>
      <point x="177" y="0" type="line"/>
      <point x="177" y="282" type="line" smooth="yes"/>
      <point x="177" y="458"/>
      <point x="213" y="474"/>
      <point x="275" y="474" type="curve" smooth="yes"/>
      <point x="328" y="474"/>
      <point x="364" y="448"/>
      <point x="364" y="375" type="curve" smooth="yes"/>
      <point x="364" y="160" type="line" smooth="yes"/>
      <point x="364" y="36"/>
      <point x="423" y="-10"/>
      <point x="541" y="-10" type="curve" smooth="yes"/>
      <point x="584" y="-10"/>
      <point x="614" y="3"/>
      <point x="634" y="46" type="curve"/>
      <point x="638" y="44" type="line"/>
      <point x="635" y="27"/>
      <point x="634" y="14"/>
      <point x="634" y="-10" type="curve" smooth="yes"/>
      <point x="634" y="-137"/>
      <point x="572" y="-166"/>
      <point x="404" y="-166" type="curve" smooth="yes"/>
      <point x="237" y="-166"/>
      <point x="181" y="-156"/>
      <point x="181" y="-91" type="curve"/>
      <point x="90" y="-91" type="line"/>
      <point x="90" y="-213"/>
      <point x="153" y="-240"/>
    </contour>
  </outline>
</glyph>
<glyph name="uniA91D" format="2">
  <advance width="772"/>
  <unicode hex="A91D"/>
  <anchor x="385" y="0" name="bottom"/>
  <anchor x="175" y="0" name="bottom_alt"/>
  <anchor x="385" y="781" name="top"/>
  <outline>
    <contour>
      <point x="382" y="-10" type="curve"/>
      <point x="628" y="-10"/>
      <point x="684" y="49"/>
      <point x="684" y="272" type="curve" smooth="yes"/>
      <point x="684" y="536" type="line"/>
      <point x="598" y="536" type="line"/>
      <point x="598" y="272" type="line" smooth="yes"/>
      <point x="598" y="107"/>
      <point x="563" y="60"/>
      <point x="385" y="60" type="curve" smooth="yes"/>
      <point x="210" y="60"/>
      <point x="174" y="113"/>
      <point x="174" y="272" type="curve" smooth="yes"/>
      <point x="174" y="714" type="line"/>
      <point x="88" y="714" type="line"/>
      <point x="88" y="272" type="line" smooth="yes"/>
      <point x="88" y="49"/>
      <point x="154" y="-10"/>
    </contour>
    <contour>
      <point x="132" y="466" type="curve"/>
      <point x="329" y="466" type="line"/>
      <point x="329" y="536" type="line"/>
      <point x="174" y="536" type="line"/>
      <point x="131" y="509" type="line"/>
      <point x="131" y="496"/>
      <point x="131" y="480"/>
    </contour>
  </outline>
</glyph>
<glyph name="uniA91F" format="2">
  <advance width="772"/>
  <unicode hex="A91F"/>
  <anchor x="385" y="0" name="bottom"/>
  <anchor x="175" y="-10" name="bottom_alt"/>
  <anchor x="385" y="605" name="top"/>
  <outline>
    <contour>
      <point x="494" y="-240" type="line"/>
      <point x="520" y="-240" type="line" smooth="yes"/>
      <point x="637" y="-240"/>
      <point x="684" y="-175"/>
      <point x="684" y="-65" type="curve" smooth="yes"/>
      <point x="684" y="536" type="line"/>
      <point x="598" y="536" type="line"/>
      <point x="598" y="483" type="line" smooth="yes"/>
      <point x="598" y="174"/>
      <point x="338" y="69"/>
      <point x="174" y="69" type="curve"/>
      <point x="174" y="130" type="line"/>
      <point x="267" y="213"/>
      <point x="349" y="335"/>
      <point x="349" y="485" type="curve" smooth="yes"/>
      <point x="349" y="536" type="line"/>
      <point x="232" y="536" type="line" smooth="yes"/>
      <point x="125" y="536"/>
      <point x="88" y="481"/>
      <point x="88" y="391" type="curve" smooth="yes"/>
      <point x="88" y="-1" type="line"/>
      <point x="167" y="-1" type="line" smooth="yes"/>
      <point x="300" y="-1"/>
      <point x="446" y="46"/>
      <point x="539" y="145" type="curve" smooth="yes"/>
      <point x="568" y="176"/>
      <point x="587" y="202"/>
      <point x="602" y="255" type="curve"/>
      <point x="607" y="254" type="line"/>
      <point x="604" y="237"/>
      <point x="598" y="202"/>
      <point x="598" y="145" type="curve" smooth="yes"/>
      <point x="598" y="-83" type="line" smooth="yes"/>
      <point x="598" y="-148"/>
      <point x="562" y="-171"/>
      <point x="527" y="-171" type="curve" smooth="yes"/>
      <point x="494" y="-171" type="line"/>
    </contour>
    <contour>
      <point x="174" y="223" type="curve"/>
      <point x="174" y="406" type="line" smooth="yes"/>
      <point x="174" y="451"/>
      <point x="200" y="467"/>
      <point x="225" y="467" type="curve" smooth="yes"/>
      <point x="272" y="467" type="line"/>
      <point x="268" y="368"/>
      <point x="224" y="281"/>
    </contour>
  </outline>
</glyph>
<glyph name="uniA920" format="2">
  <advance width="772"/>
  <unicode hex="A920"/>
  <anchor x="385" y="0" name="bottom"/>
  <anchor x="175" y="0" name="bottom_alt"/>
  <anchor x="385" y="605" name="top"/>
  <outline>
    <contour>
      <point x="385" y="-10" type="curve" smooth="yes"/>
      <point x="633" y="-10"/>
      <point x="684" y="42"/>
      <point x="684" y="264" type="curve" smooth="yes"/>
      <point x="684" y="536" type="line"/>
      <point x="586" y="536" type="line"/>
      <point x="384" y="344" type="line"/>
      <point x="186" y="536" type="line"/>
      <point x="88" y="536" type="line"/>
      <point x="88" y="251" type="line"/>
      <point x="174" y="251" type="line"/>
      <point x="174" y="444" type="line"/>
      <point x="373" y="252" type="line"/>
      <point x="395" y="252" type="line"/>
      <point x="597" y="456" type="line"/>
      <point x="597" y="230" type="line" smooth="yes"/>
      <point x="597" y="93"/>
      <point x="552" y="64"/>
      <point x="384" y="64" type="curve" smooth="yes"/>
      <point x="237" y="64"/>
      <point x="182" y="78"/>
      <point x="175" y="129" type="curve"/>
      <point x="89" y="129" type="line"/>
      <point x="105" y="17"/>
      <point x="183" y="-10"/>
    </contour>
  </outline>
</glyph>
<glyph name="uniA921" format="2">
  <advance width="772"/>
  <unicode hex="A921"/>
  <anchor x="385" y="0" name="bottom"/>
  <anchor x="175" y="0" name="bottom_alt"/>
  <anchor x="385" y="781" name="top"/>
  <outline>
    <contour>
      <point x="88" y="0" type="line"/>
      <point x="174" y="0" type="line"/>
      <point x="174" y="399" type="line"/>
      <point x="598" y="0" type="line"/>
      <point x="684" y="0" type="line"/>
      <point x="684" y="460" type="line" smooth="yes"/>
      <point x="684" y="682"/>
      <point x="633" y="734"/>
      <point x="385" y="734" type="curve" smooth="yes"/>
      <point x="183" y="734"/>
      <point x="105" y="707"/>
      <point x="89" y="595" type="curve"/>
      <point x="182" y="595" type="line"/>
      <point x="189" y="646"/>
      <point x="237" y="663"/>
      <point x="384" y="663" type="curve" smooth="yes"/>
      <point x="552" y="663"/>
      <point x="598" y="631"/>
      <point x="598" y="494" type="curve" smooth="yes"/>
      <point x="598" y="112" type="line"/>
      <point x="174" y="506" type="line"/>
      <point x="88" y="506" type="line"/>
    </contour>
  </outline>
</glyph>
<glyph name="uniA922" format="2">
  <advance width="772"/>
  <unicode hex="A922"/>
  <anchor x="385" y="0" name="bottom"/>
  <anchor x="175" y="0" name="bottom_alt"/>
  <anchor x="385" y="605" name="top"/>
  <outline>
    <contour>
      <point x="389" y="-10" type="curve" smooth="yes"/>
      <point x="585" y="-10"/>
      <point x="684" y="31"/>
      <point x="684" y="208" type="curve"/>
      <point x="600" y="208" type="line"/>
      <point x="600" y="90"/>
      <point x="545" y="60"/>
      <point x="385" y="60" type="curve" smooth="yes"/>
      <point x="202" y="60"/>
      <point x="177" y="100"/>
      <point x="177" y="151" type="curve" smooth="yes"/>
      <point x="177" y="210"/>
      <point x="211" y="244"/>
      <point x="314" y="244" type="curve"/>
      <point x="314" y="307" type="line"/>
      <point x="225" y="307"/>
      <point x="187" y="329"/>
      <point x="187" y="394" type="curve" smooth="yes"/>
      <point x="187" y="431"/>
      <point x="208" y="476"/>
      <point x="384" y="476" type="curve" smooth="yes"/>
      <point x="526" y="476"/>
      <point x="600" y="445"/>
      <point x="601" y="331" type="curve"/>
      <point x="684" y="331" type="line"/>
      <point x="684" y="509"/>
      <point x="585" y="546"/>
      <point x="387" y="546" type="curve" smooth="yes"/>
      <point x="149" y="546"/>
      <point x="98" y="488"/>
      <point x="98" y="397" type="curve" smooth="yes"/>
      <point x="98" y="327"/>
      <point x="117" y="293"/>
      <point x="198" y="275" type="curve"/>
      <point x="198" y="271" type="line"/>
      <point x="115" y="260"/>
      <point x="88" y="223"/>
      <point x="88" y="145" type="curve" smooth="yes"/>
      <point x="88" y="48"/>
      <point x="149" y="-10"/>
    </contour>
  </outline>
</glyph>
<glyph name="uniA923" format="2">
  <advance width="772"/>
  <unicode hex="A923"/>
  <anchor x="385" y="0" name="bottom"/>
  <anchor x="175" y="0" name="bottom_alt"/>
  <anchor x="385" y="605" name="top"/>
  <outline>
    <contour>
      <point x="88" y="-9" type="line"/>
      <point x="165" y="-9" type="line" smooth="yes"/>
      <point x="298" y="-9"/>
      <point x="449" y="46"/>
      <point x="542" y="145" type="curve" smooth="yes"/>
      <point x="571" y="176"/>
      <point x="587" y="202"/>
      <point x="602" y="255" type="curve"/>
      <point x="607" y="254" type="line"/>
      <point x="604" y="237"/>
      <point x="598" y="202"/>
      <point x="598" y="145" type="curve" smooth="yes"/>
      <point x="598" y="0" type="line"/>
      <point x="684" y="0" type="line"/>
      <point x="684" y="536" type="line"/>
      <point x="598" y="536" type="line"/>
      <point x="598" y="483" type="line" smooth="yes"/>
      <point x="598" y="174"/>
      <point x="338" y="61"/>
      <point x="174" y="61" type="curve"/>
      <point x="174" y="536" type="line"/>
      <point x="88" y="536" type="line"/>
    </contour>
  </outline>
</glyph>
<glyph name="uniA924" format="2">
  <advance width="772"/>
  <unicode hex="A924"/>
  <anchor x="385" y="0" name="bottom"/>
  <anchor x="175" y="0" name="bottom_alt"/>
  <anchor x="385" y="605" name="top"/>
  <outline>
    <contour>
      <point x="385" y="-10" type="curve" smooth="yes"/>
      <point x="623" y="-10"/>
      <point x="684" y="47"/>
      <point x="684" y="264" type="curve" smooth="yes"/>
      <point x="684" y="487"/>
      <point x="618" y="546"/>
      <point x="390" y="546" type="curve" smooth="yes"/>
      <point x="185" y="546"/>
      <point x="88" y="499"/>
      <point x="88" y="328" type="curve"/>
      <point x="172" y="328" type="line"/>
      <point x="172" y="440"/>
      <point x="227" y="476"/>
      <point x="387" y="476" type="curve" smooth="yes"/>
      <point x="562" y="476"/>
      <point x="595" y="423"/>
      <point x="595" y="264" type="curve" smooth="yes"/>
      <point x="595" y="100"/>
      <point x="569" y="61"/>
      <point x="388" y="61" type="curve" smooth="yes"/>
      <point x="290" y="61"/>
      <point x="232" y="69"/>
      <point x="199" y="87" type="curve"/>
      <point x="606" y="406" type="line"/>
      <point x="560" y="463" type="line"/>
      <point x="90" y="92" type="line"/>
      <point x="124" y="4"/>
      <point x="216" y="-10"/>
    </contour>
  </outline>
</glyph>
<glyph name="uniA925" format="2">
  <advance width="772"/>
  <unicode hex="A925"/>
  <anchor x="385" y="0" name="bottom"/>
  <anchor x="175" y="0" name="bottom_alt"/>
  <anchor x="385" y="605" name="top"/>
  <outline>
    <contour>
      <point x="382" y="-10" type="curve" smooth="yes"/>
      <point x="628" y="-10"/>
      <point x="684" y="49"/>
      <point x="684" y="272" type="curve" smooth="yes"/>
      <point x="684" y="494"/>
      <point x="620" y="546"/>
      <point x="387" y="546" type="curve" smooth="yes"/>
      <point x="139" y="546"/>
      <point x="88" y="494"/>
      <point x="88" y="272" type="curve" smooth="yes"/>
      <point x="88" y="49"/>
      <point x="154" y="-10"/>
    </contour>
    <contour>
      <point x="385" y="60" type="curve" smooth="yes"/>
      <point x="210" y="60"/>
      <point x="177" y="113"/>
      <point x="177" y="272" type="curve" smooth="yes"/>
      <point x="177" y="436"/>
      <point x="203" y="475"/>
      <point x="384" y="475" type="curve" smooth="yes"/>
      <point x="559" y="475"/>
      <point x="595" y="431"/>
      <point x="595" y="272" type="curve" smooth="yes"/>
      <point x="595" y="107"/>
      <point x="563" y="60"/>
    </contour>
    <contour>
      <point x="383" y="283" type="curve"/>
      <point x="504" y="283"/>
      <point x="585" y="334"/>
      <point x="600" y="343" type="curve"/>
      <point x="600" y="412" type="line"/>
      <point x="578" y="400"/>
      <point x="486" y="352"/>
      <point x="383" y="352" type="curve" smooth="yes"/>
      <point x="280" y="352"/>
      <point x="189" y="404"/>
      <point x="174" y="412" type="curve"/>
      <point x="174" y="343" type="line"/>
      <point x="184" y="336"/>
      <point x="255" y="283"/>
    </contour>
  </outline>
</glyph>
<glyph name="uniA926" format="2">
  <unicode hex="A926"/>
  <anchor x="-381" y="566" name="_top"/>
  <outline>
    <contour>
      <point x="-385" y="611" type="curve" smooth="yes"/>
      <point x="-358" y="611"/>
      <point x="-334" y="625"/>
      <point x="-334" y="663" type="curve" smooth="yes"/>
      <point x="-334" y="702"/>
      <point x="-358" y="715"/>
      <point x="-385" y="715" type="curve" smooth="yes"/>
      <point x="-414" y="715"/>
      <point x="-437" y="702"/>
      <point x="-437" y="663" type="curve" smooth="yes"/>
      <point x="-437" y="625"/>
      <point x="-414" y="611"/>
    </contour>
  </outline>
</glyph>
<glyph name="uniA927" format="2">
  <unicode hex="A927"/>
  <anchor x="-381" y="566" name="_top"/>
  <outline>
    <contour>
      <point x="-178" y="564" type="line"/>
      <point x="-178" y="637" type="line"/>
      <point x="-582" y="734" type="line"/>
      <point x="-582" y="660" type="line"/>
    </contour>
  </outline>
</glyph>
<glyph name="uniA928" format="2">
  <unicode hex="A928"/>
  <anchor x="-381" y="566" name="_top"/>
  <outline>
    <contour>
      <point x="-582" y="564" type="line"/>
      <point x="-380" y="661" type="line"/>
      <point x="-178" y="564" type="line"/>
      <point x="-178" y="637" type="line"/>
      <point x="-380" y="734" type="line"/>
      <point x="-582" y="637" type="line"/>
    </contour>
  </outline>
</glyph>
<glyph name="uniA929" format="2">
  <unicode hex="A929"/>
  <anchor x="-381" y="566" name="_top"/>
  <outline>
    <contour>
      <point x="-381" y="581" type="curve" smooth="yes"/>
      <point x="-158" y="581"/>
      <point x="-140" y="655"/>
      <point x="-140" y="760" type="curve"/>
      <point x="-221" y="760" type="line"/>
      <point x="-221" y="670"/>
      <point x="-254" y="644"/>
      <point x="-379" y="644" type="curve" smooth="yes"/>
      <point x="-504" y="644"/>
      <point x="-535" y="670"/>
      <point x="-535" y="760" type="curve"/>
      <point x="-616" y="760" type="line"/>
      <point x="-616" y="661"/>
      <point x="-604" y="581"/>
    </contour>
  </outline>
</glyph>
<glyph name="uniA92A" format="2">
  <unicode hex="A92A"/>
  <anchor x="-381" y="566" name="_top"/>
  <outline>
    <contour>
      <point x="-381" y="581" type="curve" smooth="yes"/>
      <point x="-158" y="581"/>
      <point x="-140" y="655"/>
      <point x="-140" y="760" type="curve"/>
      <point x="-221" y="760" type="line"/>
      <point x="-221" y="670"/>
      <point x="-254" y="644"/>
      <point x="-379" y="644" type="curve" smooth="yes"/>
      <point x="-504" y="644"/>
      <point x="-535" y="670"/>
      <point x="-535" y="760" type="curve"/>
      <point x="-616" y="760" type="line"/>
      <point x="-616" y="661"/>
      <point x="-604" y="581"/>
    </contour>
    <contour>
      <point x="-379" y="657" type="curve" smooth="yes"/>
      <point x="-349" y="657"/>
      <point x="-323" y="672"/>
      <point x="-323" y="714" type="curve" smooth="yes"/>
      <point x="-323" y="757"/>
      <point x="-349" y="771"/>
      <point x="-379" y="771" type="curve" smooth="yes"/>
      <point x="-411" y="771"/>
      <point x="-436" y="757"/>
      <point x="-436" y="714" type="curve" smooth="yes"/>
      <point x="-436" y="672"/>
      <point x="-411" y="657"/>
    </contour>
  </outline>
</glyph>
<glyph name="uniA92B" format="2">
  <unicode hex="A92B"/>
  <anchor x="-386" y="0" name="_bottom"/>
  <outline>
    <contour>
      <point x="-385" y="-160" type="curve" smooth="yes"/>
      <point x="-358" y="-160"/>
      <point x="-334" y="-146"/>
      <point x="-334" y="-108" type="curve" smooth="yes"/>
      <point x="-334" y="-69"/>
      <point x="-358" y="-56"/>
      <point x="-385" y="-56" type="curve" smooth="yes"/>
      <point x="-414" y="-56"/>
      <point x="-437" y="-69"/>
      <point x="-437" y="-108" type="curve" smooth="yes"/>
      <point x="-437" y="-146"/>
      <point x="-414" y="-160"/>
    </contour>
  </outline>
</glyph>
<glyph name="uniA92C" format="2">
  <unicode hex="A92C"/>
  <anchor x="-586" y="0" name="_bottom_alt"/>
  <outline>
    <contour>
      <point x="-383" y="-240" type="curve" smooth="yes"/>
      <point x="-187" y="-240"/>
      <point x="-88" y="-202"/>
      <point x="-88" y="-52" type="curve"/>
      <point x="-169" y="-52" type="line"/>
      <point x="-169" y="-154"/>
      <point x="-227" y="-177"/>
      <point x="-387" y="-177" type="curve" smooth="yes"/>
      <point x="-570" y="-177"/>
      <point x="-598" y="-130"/>
      <point x="-598" y="-79" type="curve" smooth="yes"/>
      <point x="-598" y="-30"/>
      <point x="-571" y="-7"/>
      <point x="-505" y="2" type="curve"/>
      <point x="-505" y="30" type="line"/>
      <point x="-574" y="30" type="line"/>
      <point x="-657" y="19"/>
      <point x="-684" y="-7"/>
      <point x="-684" y="-85" type="curve" smooth="yes"/>
      <point x="-684" y="-182"/>
      <point x="-623" y="-240"/>
    </contour>
  </outline>
</glyph>
<glyph name="uniA92D" format="2">
  <unicode hex="A92D"/>
  <anchor x="-586" y="0" name="_bottom_alt"/>
  <outline>
    <contour>
      <point x="-383" y="-240" type="curve" smooth="yes"/>
      <point x="-187" y="-240"/>
      <point x="-88" y="-202"/>
      <point x="-88" y="-52" type="curve"/>
      <point x="-169" y="-52" type="line"/>
      <point x="-169" y="-154"/>
      <point x="-227" y="-177"/>
      <point x="-387" y="-177" type="curve" smooth="yes"/>
      <point x="-570" y="-177"/>
      <point x="-598" y="-130"/>
      <point x="-598" y="-79" type="curve" smooth="yes"/>
      <point x="-598" y="-30"/>
      <point x="-571" y="-7"/>
      <point x="-505" y="2" type="curve"/>
      <point x="-505" y="30" type="line"/>
      <point x="-574" y="30" type="line"/>
      <point x="-657" y="19"/>
      <point x="-684" y="-7"/>
      <point x="-684" y="-85" type="curve" smooth="yes"/>
      <point x="-684" y="-182"/>
      <point x="-623" y="-240"/>
    </contour>
    <contour>
      <point x="-385" y="-140" type="curve" smooth="yes"/>
      <point x="-358" y="-140"/>
      <point x="-334" y="-126"/>
      <point x="-334" y="-88" type="curve" smooth="yes"/>
      <point x="-334" y="-49"/>
      <point x="-358" y="-36"/>
      <point x="-385" y="-36" type="curve" smooth="yes"/>
      <point x="-414" y="-36"/>
      <point x="-437" y="-49"/>
      <point x="-437" y="-88" type="curve" smooth="yes"/>
      <point x="-437" y="-126"/>
      <point x="-414" y="-140"/>
    </contour>
  </outline>
</glyph>
<glyph name="uniA92E" format="2">
  <advance width="772"/>
  <unicode hex="A92E"/>
  <outline>
    <contour>
      <point x="59" y="231" type="line"/>
      <point x="99" y="276"/>
      <point x="198" y="319"/>
      <point x="385" y="319" type="curve" smooth="yes"/>
      <point x="572" y="319"/>
      <point x="673" y="276"/>
      <point x="713" y="231" type="curve"/>
      <point x="734" y="241" type="line"/>
      <point x="704" y="321"/>
      <point x="564" y="394"/>
      <point x="383" y="394" type="curve" smooth="yes"/>
      <point x="202" y="394"/>
      <point x="68" y="320"/>
      <point x="38" y="241" type="curve"/>
    </contour>
  </outline>
</glyph>
<glyph name="uniA92F" format="2">
  <advance width="260"/>
  <unicode hex="A92F"/>
  <outline>
    <contour>
      <point x="88" y="1" type="line"/>
      <point x="172" y="1" type="line"/>
      <point x="172" y="536" type="line"/>
      <point x="88" y="536" type="line"/>
    </contour>
  </outline>
</glyph>
<glyph name="uniA92D.alt" format="2">
  <anchor x="-596" y="0" name="_bottom_alt"/>
  <outline>
    <contour>
      <point x="-383" y="-240" type="curve" smooth="yes"/>
      <point x="-172" y="-240"/>
      <point x="-88" y="-195"/>
      <point x="-88" y="-52" type="curve"/>
      <point x="-169" y="-52" type="line"/>
      <point x="-169" y="-152"/>
      <point x="-221" y="-177"/>
      <point x="-387" y="-177" type="curve" smooth="yes"/>
      <point x="-543" y="-177"/>
      <point x="-598" y="-151"/>
      <point x="-598" y="-68" type="curve" smooth="yes"/>
      <point x="-598" y="15" type="line"/>
      <point x="-684" y="15" type="line"/>
      <point x="-684" y="-72" type="line" smooth="yes"/>
      <point x="-684" y="-199"/>
      <point x="-607" y="-240"/>
    </contour>
    <contour>
      <point x="-385" y="-140" type="curve" smooth="yes"/>
      <point x="-352" y="-140"/>
      <point x="-334" y="-121"/>
      <point x="-334" y="-88" type="curve" smooth="yes"/>
      <point x="-334" y="-53"/>
      <point x="-353" y="-36"/>
      <point x="-385" y="-36" type="curve" smooth="yes"/>
      <point x="-420" y="-36"/>
      <point x="-437" y="-53"/>
      <point x="-437" y="-88" type="curve" smooth="yes"/>
      <point x="-437" y="-121"/>
      <point x="-420" y="-140"/>
    </contour>
  </outline>
</glyph>
